{
.appVersion = "895";
copyright = "Copyright 2016 Google Inc. All Rights Reserved.";
customParameters = (
{
name = description;
value = "Designed by Monotype design team.";
},
{
name = license;
value = "This Font Software is licensed under the SIL Open Font License, Version 1.1. This Font Software is distributed on an \"AS IS\" BASIS, WITHOUT WARRANTIES OR CONDITIONS OF ANY KIND, either express or implied. See the SIL Open Font License for the specific language, permissions and limitations governing your use of this Font Software.";
},
{
name = licenseURL;
value = "http://scripts.sil.org/OFL";
},
{
name = vendorID;
value = GOOG;
},
{
name = trademark;
value = "Noto is a trademark of Google Inc.";
},
{
name = fsType;
value = ();
},
{
name = panose;
value = (
2,
11,
5,
2,
4,
5,
4,
2,
2,
4
);
},
{
name = unicodeRanges;
value = (
57,
107
);
},
{
name = codePageRanges;
value = (
1252
);
}
);
date = "2016-11-10 14:03:42 +0000";
designer = "Monotype Design Team";
designerURL = "http://www.monotype.com/studio";
familyName = "Noto Sans Cypriot";
fontMaster = (
{
ascender = 2189;
capHeight = 1434;
customParameters = (
{
name = typoAscender;
value = 2189;
},
{
name = typoDescender;
value = -600;
},
{
name = typoLineGap;
value = 0;
},
{
name = winAscent;
value = 2189;
},
{
name = winDescent;
value = 600;
},
{
name = hheaAscender;
value = 2189;
},
{
name = hheaDescender;
value = -600;
},
{
name = underlinePosition;
value = -205;
},
{
name = underlineThickness;
value = 102;
}
);
descender = -600;
id = "67EF7336-7CB8-4251-9ECE-B9471ABF4073";
weightValue = 400;
widthValue = 5;
xHeight = 1024;
}
);
glyphs = (
{
glyphname = .notdef;
lastChange = "2016-11-10 14:03:24 +0000";
layers = (
{
layerId = "67EF7336-7CB8-4251-9ECE-B9471ABF4073";
paths = (
{
closed = 1;
nodes = (
"1034 0 LINE",
"1034 1462 LINE",
"193 1462 LINE",
"193 0 LINE"
);
},
{
closed = 1;
nodes = (
"297 1358 LINE",
"930 1358 LINE",
"930 104 LINE",
"297 104 LINE"
);
}
);
width = 1229;
}
);
note = .notdef;
},
{
glyphname = g4;
lastChange = "2016-11-10 14:03:24 +0000";
layers = (
{
layerId = "67EF7336-7CB8-4251-9ECE-B9471ABF4073";
paths = (
{
closed = 1;
nodes = (
"895 0 LINE",
"895 436 LINE SMOOTH",
"895 515 OFFCURVE",
"884 626 OFFCURVE",
"872 659 CURVE",
"881 664 LINE",
"914 616 OFFCURVE",
"998 535 OFFCURVE",
"1053 494 CURVE",
"1393 215 LINE",
"1485 342 LINE",
"1124 635 LINE SMOOTH",
"1069 678 OFFCURVE",
"974 725 OFFCURVE",
"895 748 CURVE",
"895 756 LINE",
"974 772 OFFCURVE",
"1050 809 OFFCURVE",
"1124 866 CURVE SMOOTH",
"1491 1161 LINE",
"1393 1284 LINE",
"1053 1010 LINE SMOOTH",
"1004 973 OFFCURVE",
"913 881 OFFCURVE",
"881 838 CURVE",
"872 842 LINE",
"884 877 OFFCURVE",
"895 986 OFFCURVE",
"895 1065 CURVE SMOOTH",
"895 1462 LINE",
"735 1462 LINE",
"735 1065 LINE SMOOTH",
"735 973 OFFCURVE",
"744 877 OFFCURVE",
"756 842 CURVE",
"748 838 LINE",
"721 875 OFFCURVE",
"634 966 OFFCURVE",
"578 1010 CURVE SMOOTH",
"236 1284 LINE",
"137 1161 LINE",
"506 866 LINE SMOOTH",
"579 809 OFFCURVE",
"655 772 OFFCURVE",
"735 756 CURVE",
"735 748 LINE",
"650 723 OFFCURVE",
"558 678 OFFCURVE",
"506 635 CURVE SMOOTH",
"143 342 LINE",
"236 215 LINE",
"578 494 LINE",
"634 535 OFFCURVE",
"721 623 OFFCURVE",
"748 664 CURVE",
"756 659 LINE",
"742 620 OFFCURVE",
"735 545 OFFCURVE",
"735 436 CURVE SMOOTH",
"735 0 LINE"
);
}
);
width = 1630;
}
);
note = g4;
},
{
glyphname = g5;
lastChange = "2016-11-10 14:03:24 +0000";
layers = (
{
layerId = "67EF7336-7CB8-4251-9ECE-B9471ABF4073";
paths = (
{
closed = 1;
nodes = (
"895 0 LINE",
"895 436 LINE SMOOTH",
"895 515 OFFCURVE",
"884 626 OFFCURVE",
"872 659 CURVE",
"881 664 LINE",
"914 616 OFFCURVE",
"998 535 OFFCURVE",
"1053 494 CURVE",
"1393 215 LINE",
"1485 342 LINE",
"1231 549 LINE SMOOTH",
"1159 609 OFFCURVE",
"990 699 OFFCURVE",
"922 715 CURVE",
"922 723 LINE",
"1037 697 OFFCURVE",
"1159 684 OFFCURVE",
"1288 684 CURVE SMOOTH",
"1466 684 LINE",
"1466 825 LINE",
"1288 825 LINE SMOOTH",
"1155 825 OFFCURVE",
"1034 810 OFFCURVE",
"924 780 CURVE",
"924 791 LINE",
"987 802 OFFCURVE",
"1164 897 OFFCURVE",
"1231 952 CURVE SMOOTH",
"1491 1161 LINE",
"1393 1284 LINE",
"1053 1010 LINE SMOOTH",
"1004 973 OFFCURVE",
"913 881 OFFCURVE",
"881 838 CURVE",
"872 842 LINE",
"884 877 OFFCURVE",
"895 986 OFFCURVE",
"895 1065 CURVE SMOOTH",
"895 1462 LINE",
"735 1462 LINE",
"735 1065 LINE SMOOTH",
"735 973 OFFCURVE",
"744 877 OFFCURVE",
"756 842 CURVE",
"748 838 LINE",
"721 875 OFFCURVE",
"634 966 OFFCURVE",
"578 1010 CURVE SMOOTH",
"236 1284 LINE",
"137 1161 LINE",
"506 866 LINE SMOOTH",
"579 809 OFFCURVE",
"655 772 OFFCURVE",
"735 756 CURVE",
"735 748 LINE",
"650 723 OFFCURVE",
"558 678 OFFCURVE",
"506 635 CURVE SMOOTH",
"143 342 LINE",
"236 215 LINE",
"578 494 LINE",
"634 535 OFFCURVE",
"721 623 OFFCURVE",
"748 664 CURVE",
"756 659 LINE",
"742 620 OFFCURVE",
"735 545 OFFCURVE",
"735 436 CURVE SMOOTH",
"735 0 LINE"
);
}
);
width = 1630;
}
);
note = g5;
},
{
glyphname = g6;
lastChange = "2016-11-10 14:03:24 +0000";
layers = (
{
layerId = "67EF7336-7CB8-4251-9ECE-B9471ABF4073";
paths = (
{
closed = 1;
nodes = (
"715 428 LINE",
"1176 -20 LINE",
"1286 90 LINE",
"842 520 LINE",
"1288 963 LINE",
"1182 1071 LINE",
"911 809 LINE SMOOTH",
"862 761 OFFCURVE",
"817 703 OFFCURVE",
"778 635 CURVE",
"770 635 LINE",
"787 746 OFFCURVE",
"795 875 OFFCURVE",
"795 1020 CURVE SMOOTH",
"795 1462 LINE",
"635 1462 LINE",
"635 1020 LINE SMOOTH",
"635 880 OFFCURVE",
"643 752 OFFCURVE",
"659 635 CURVE",
"651 635 LINE",
"620 692 OFFCURVE",
"575 750 OFFCURVE",
"516 809 CURVE SMOOTH",
"246 1071 LINE",
"137 965 LINE",
"590 520 LINE",
"147 92 LINE",
"258 -20 LINE"
);
}
);
width = 1427;
}
);
note = g6;
},
{
glyphname = g7;
lastChange = "2016-11-10 14:03:24 +0000";
layers = (
{
layerId = "67EF7336-7CB8-4251-9ECE-B9471ABF4073";
paths = (
{
closed = 1;
nodes = (
"1255 0 LINE",
"1255 141 LINE",
"803 141 LINE",
"1380 805 LINE",
"1257 913 LINE",
"766 348 LINE",
"287 915 LINE",
"162 807 LINE",
"743 141 LINE",
"287 141 LINE",
"287 0 LINE"
);
},
{
closed = 1;
nodes = (
"838 756 LINE",
"1380 1376 LINE",
"1257 1485 LINE",
"766 922 LINE",
"287 1487 LINE",
"162 1378 LINE",
"707 756 LINE"
);
}
);
width = 1542;
}
);
note = g7;
},
{
glyphname = g8;
lastChange = "2016-11-10 14:03:24 +0000";
layers = (
{
layerId = "67EF7336-7CB8-4251-9ECE-B9471ABF4073";
paths = (
{
closed = 1;
nodes = (
"942 0 LINE",
"942 944 LINE",
"1278 1268 LINE",
"1559 987 LINE",
"1669 1094 LINE",
"1294 1462 LINE",
"1245 1462 LINE",
"868 1087 LINE",
"494 1462 LINE",
"442 1462 LINE",
"70 1094 LINE",
"180 987 LINE",
"463 1270 LINE",
"782 950 LINE",
"782 0 LINE"
);
}
);
width = 1739;
}
);
note = g8;
},
{
glyphname = g9;
lastChange = "2016-11-10 14:03:24 +0000";
layers = (
{
layerId = "67EF7336-7CB8-4251-9ECE-B9471ABF4073";
paths = (
{
closed = 1;
nodes = (
"633 0 LINE",
"902 296 OFFCURVE",
"1049 611 OFFCURVE",
"1049 924 CURVE SMOOTH",
"1049 1281 OFFCURVE",
"881 1489 OFFCURVE",
"594 1489 CURVE SMOOTH",
"497 1489 OFFCURVE",
"415 1466 OFFCURVE",
"346 1421 CURVE SMOOTH",
"209 1329 OFFCURVE",
"137 1153 OFFCURVE",
"137 924 CURVE SMOOTH",
"137 609 OFFCURVE",
"285 295 OFFCURVE",
"553 0 CURVE"
);
},
{
closed = 1;
nodes = (
"406 385 OFFCURVE",
"297 649 OFFCURVE",
"297 924 CURVE SMOOTH",
"297 1192 OFFCURVE",
"401 1341 OFFCURVE",
"594 1341 CURVE SMOOTH",
"787 1341 OFFCURVE",
"891 1196 OFFCURVE",
"891 924 CURVE SMOOTH",
"891 653 OFFCURVE",
"785 388 OFFCURVE",
"594 168 CURVE"
);
}
);
width = 1186;
}
);
note = g9;
},
{
glyphname = g10;
lastChange = "2016-11-10 14:03:24 +0000";
layers = (
{
layerId = "67EF7336-7CB8-4251-9ECE-B9471ABF4073";
paths = (
{
closed = 1;
nodes = (
"1823 344 LINE",
"1823 487 LINE",
"1716 487 LINE SMOOTH",
"1623 487 OFFCURVE",
"1548 484 OFFCURVE",
"1493 477 CURVE",
"1487 487 LINE",
"1514 505 OFFCURVE",
"1557 550 OFFCURVE",
"1618 623 CURVE SMOOTH",
"1952 1014 LINE",
"1837 1114 LINE",
"1452 651 LINE",
"1069 1114 LINE",
"987 1114 LINE",
"586 635 LINE",
"190 1114 LINE",
"70 1014 LINE",
"514 463 LINE",
"629 463 LINE",
"1024 920 LINE",
"1266 621 LINE SMOOTH",
"1315 560 OFFCURVE",
"1358 515 OFFCURVE",
"1393 487 CURVE",
"1389 477 LINE",
"1326 484 OFFCURVE",
"1255 487 OFFCURVE",
"1176 487 CURVE SMOOTH",
"1044 487 LINE",
"1044 344 LINE"
);
}
);
width = 2019;
}
);
note = g10;
},
{
glyphname = g11;
lastChange = "2016-11-10 14:03:24 +0000";
layers = (
{
layerId = "67EF7336-7CB8-4251-9ECE-B9471ABF4073";
paths = (
{
closed = 1;
nodes = (
"1180 0 LINE",
"1180 141 LINE",
"793 141 LINE",
"793 901 LINE SMOOTH",
"793 993 OFFCURVE",
"789 1087 OFFCURVE",
"781 1184 CURVE SMOOTH",
"774 1264 LINE",
"782 1264 LINE",
"806 1225 OFFCURVE",
"849 1174 OFFCURVE",
"911 1112 CURVE SMOOTH",
"1180 848 LINE",
"1288 954 LINE",
"758 1483 LINE",
"666 1483 LINE",
"137 956 LINE",
"244 848 LINE",
"516 1112 LINE SMOOTH",
"571 1165 OFFCURVE",
"612 1215 OFFCURVE",
"639 1264 CURVE",
"647 1264 LINE",
"638 1139 OFFCURVE",
"633 1018 OFFCURVE",
"633 901 CURVE SMOOTH",
"633 141 LINE",
"244 141 LINE",
"244 0 LINE"
);
}
);
width = 1427;
}
);
note = g11;
},
{
glyphname = g12;
lastChange = "2016-11-10 14:03:24 +0000";
layers = (
{
layerId = "67EF7336-7CB8-4251-9ECE-B9471ABF4073";
paths = (
{
closed = 1;
nodes = (
"604 383 LINE",
"934 131 LINE",
"1030 258 LINE",
"698 506 LINE",
"1018 928 LINE SMOOTH",
"1066 990 OFFCURVE",
"1090 1049 OFFCURVE",
"1090 1106 CURVE SMOOTH",
"1090 1180 OFFCURVE",
"1047 1251 OFFCURVE",
"961 1319 CURVE SMOOTH",
"737 1491 LINE",
"639 1364 LINE",
"858 1198 LINE SMOOTH",
"903 1164 OFFCURVE",
"926 1129 OFFCURVE",
"926 1092 CURVE SMOOTH",
"926 1065 OFFCURVE",
"914 1037 OFFCURVE",
"891 1008 CURVE SMOOTH",
"813 905 LINE",
"477 1167 LINE",
"383 1042 LINE",
"717 786 LINE",
"578 600 LINE",
"233 860 LINE",
"137 733 LINE",
"485 477 LINE",
"178 82 LINE",
"299 -20 LINE"
);
}
);
width = 1274;
}
);
note = g12;
},
{
glyphname = g13;
lastChange = "2016-11-10 14:03:24 +0000";
layers = (
{
layerId = "67EF7336-7CB8-4251-9ECE-B9471ABF4073";
paths = (
{
closed = 1;
nodes = (
"909 0 LINE",
"909 141 LINE",
"698 141 LINE",
"698 733 LINE",
"1030 1051 LINE",
"1239 844 LINE",
"1350 950 LINE",
"1047 1245 LINE",
"997 1245 LINE",
"621 870 LINE",
"248 1243 LINE",
"137 1130 LINE",
"539 727 LINE",
"539 141 LINE",
"324 141 LINE",
"324 0 LINE"
);
},
{
closed = 1;
nodes = (
"909 1321 LINE",
"909 1462 LINE",
"324 1462 LINE",
"324 1321 LINE"
);
}
);
width = 1419;
}
);
note = g13;
},
{
glyphname = g14;
lastChange = "2016-11-10 14:03:24 +0000";
layers = (
{
layerId = "67EF7336-7CB8-4251-9ECE-B9471ABF4073";
paths = (
{
closed = 1;
nodes = (
"506 1319 LINE",
"973 1319 LINE",
"1161 -6 LINE",
"1319 6 LINE",
"1110 1462 LINE",
"371 1462 LINE",
"162 6 LINE",
"317 -6 LINE"
);
}
);
width = 1479;
}
);
note = g14;
},
{
glyphname = g15;
lastChange = "2016-11-10 14:03:24 +0000";
layers = (
{
layerId = "67EF7336-7CB8-4251-9ECE-B9471ABF4073";
paths = (
{
closed = 1;
nodes = (
"793 0 LINE",
"793 293 LINE SMOOTH",
"793 416 OFFCURVE",
"784 543 OFFCURVE",
"766 676 CURVE",
"774 676 LINE",
"847 553 OFFCURVE",
"949 465 OFFCURVE",
"1180 240 CURVE",
"1288 346 LINE",
"838 793 LINE",
"1260 1198 LINE",
"1149 1313 LINE",
"713 883 LINE",
"279 1311 LINE",
"168 1198 LINE",
"586 793 LINE",
"137 348 LINE",
"244 240 LINE",
"516 504 LINE SMOOTH",
"567 553 OFFCURVE",
"611 610 OFFCURVE",
"647 676 CURVE",
"655 676 LINE",
"640 568 OFFCURVE",
"633 440 OFFCURVE",
"633 293 CURVE SMOOTH",
"633 0 LINE"
);
},
{
closed = 1;
nodes = (
"758 1122 LINE",
"1028 1386 LINE",
"932 1483 LINE",
"715 1278 LINE",
"496 1481 LINE",
"397 1386 LINE",
"670 1122 LINE"
);
}
);
width = 1427;
}
);
note = g15;
},
{
glyphname = g16;
lastChange = "2016-11-10 14:03:24 +0000";
layers = (
{
layerId = "67EF7336-7CB8-4251-9ECE-B9471ABF4073";
paths = (
{
closed = 1;
nodes = (
"1038 344 LINE",
"1038 487 LINE",
"932 487 LINE SMOOTH",
"845 487 OFFCURVE",
"774 484 OFFCURVE",
"719 477 CURVE",
"713 487 LINE",
"758 520 OFFCURVE",
"774 535 OFFCURVE",
"838 596 CURVE SMOOTH",
"1165 918 LINE",
"1427 664 LINE",
"1538 770 LINE",
"1182 1112 LINE",
"1133 1112 LINE",
"655 635 LINE",
"180 1112 LINE",
"70 999 LINE",
"453 612 LINE SMOOTH",
"525 536 OFFCURVE",
"551 516 OFFCURVE",
"598 487 CURVE",
"594 477 LINE",
"530 484 OFFCURVE",
"462 487 OFFCURVE",
"391 487 CURVE SMOOTH",
"258 487 LINE",
"258 344 LINE"
);
}
);
width = 1606;
}
);
note = g16;
},
{
glyphname = g17;
lastChange = "2016-11-10 14:03:24 +0000";
layers = (
{
layerId = "67EF7336-7CB8-4251-9ECE-B9471ABF4073";
paths = (
{
closed = 1;
nodes = (
"652 -20 OFFCURVE",
"726 -4 OFFCURVE",
"793 29 CURVE SMOOTH",
"927 93 OFFCURVE",
"1004 218 OFFCURVE",
"1004 379 CURVE SMOOTH",
"1004 544 OFFCURVE",
"893 696 OFFCURVE",
"721 764 CURVE",
"886 851 OFFCURVE",
"981 982 OFFCURVE",
"981 1122 CURVE SMOOTH",
"981 1193 OFFCURVE",
"963 1255 OFFCURVE",
"928 1309 CURVE SMOOTH",
"857 1417 OFFCURVE",
"725 1479 OFFCURVE",
"578 1479 CURVE SMOOTH",
"503 1479 OFFCURVE",
"434 1464 OFFCURVE",
"369 1434 CURVE SMOOTH",
"239 1373 OFFCURVE",
"160 1259 OFFCURVE",
"160 1122 CURVE SMOOTH",
"160 966 OFFCURVE",
"221 866 OFFCURVE",
"420 743 CURVE",
"240 674 OFFCURVE",
"137 540 OFFCURVE",
"137 379 CURVE SMOOTH",
"137 299 OFFCURVE",
"156 229 OFFCURVE",
"193 169 CURVE SMOOTH",
"267 49 OFFCURVE",
"408 -20 OFFCURVE",
"571 -20 CURVE SMOOTH"
);
},
{
closed = 1;
nodes = (
"410 125 OFFCURVE",
"303 220 OFFCURVE",
"303 371 CURVE SMOOTH",
"303 526 OFFCURVE",
"392 638 OFFCURVE",
"569 705 CURVE",
"748 634 OFFCURVE",
"838 523 OFFCURVE",
"838 371 CURVE SMOOTH",
"838 218 OFFCURVE",
"730 125 OFFCURVE",
"567 125 CURVE SMOOTH"
);
},
{
closed = 1;
nodes = (
"410 885 OFFCURVE",
"324 986 OFFCURVE",
"324 1122 CURVE SMOOTH",
"324 1246 OFFCURVE",
"435 1335 OFFCURVE",
"571 1335 CURVE SMOOTH",
"711 1335 OFFCURVE",
"817 1245 OFFCURVE",
"817 1120 CURVE SMOOTH",
"817 993 OFFCURVE",
"734 888 OFFCURVE",
"569 805 CURVE"
);
}
);
width = 1141;
}
);
note = g17;
},
{
glyphname = g18;
lastChange = "2016-11-10 14:03:24 +0000";
layers = (
{
layerId = "67EF7336-7CB8-4251-9ECE-B9471ABF4073";
paths = (
{
closed = 1;
nodes = (
"1135 344 LINE",
"1135 487 LINE",
"287 487 LINE",
"952 1399 LINE",
"827 1489 LINE",
"92 487 LINE",
"92 344 LINE"
);
},
{
closed = 1;
nodes = (
"1135 0 LINE",
"1135 141 LINE",
"92 141 LINE",
"92 0 LINE"
);
}
);
width = 1272;
}
);
note = g18;
},
{
glyphname = g19;
lastChange = "2016-11-10 14:03:24 +0000";
layers = (
{
layerId = "67EF7336-7CB8-4251-9ECE-B9471ABF4073";
paths = (
{
closed = 1;
nodes = (
"666 0 LINE",
"666 735 LINE",
"1083 735 LINE",
"1083 877 LINE",
"666 877 LINE",
"666 1462 LINE",
"508 1462 LINE",
"508 877 LINE",
"92 877 LINE",
"92 735 LINE",
"508 735 LINE",
"508 0 LINE"
);
}
);
width = 1176;
}
);
note = g19;
},
{
glyphname = g20;
lastChange = "2016-11-10 14:03:24 +0000";
layers = (
{
layerId = "67EF7336-7CB8-4251-9ECE-B9471ABF4073";
paths = (
{
closed = 1;
nodes = (
"319 621 LINE SMOOTH",
"336 1104 OFFCURVE",
"507 1346 OFFCURVE",
"831 1346 CURVE SMOOTH",
"1159 1346 OFFCURVE",
"1335 1102 OFFCURVE",
"1360 614 CURVE SMOOTH",
"1391 -4 LINE",
"1550 4 LINE",
"1522 614 LINE SMOOTH",
"1494 1181 OFFCURVE",
"1263 1491 OFFCURVE",
"866 1491 CURVE SMOOTH",
"817 1491 LINE SMOOTH",
"417 1491 OFFCURVE",
"182 1181 OFFCURVE",
"162 621 CURVE SMOOTH",
"137 4 LINE",
"297 -4 LINE"
);
},
{
closed = 1;
nodes = (
"842 -12 LINE SMOOTH",
"913 -12 OFFCURVE",
"972 9 OFFCURVE",
"1019 50 CURVE SMOOTH",
"1113 133 OFFCURVE",
"1159 294 OFFCURVE",
"1159 621 CURVE",
"1001 621 LINE",
"1001 484 OFFCURVE",
"996 384 OFFCURVE",
"985 320 CURVE SMOOTH",
"963 192 OFFCURVE",
"914 131 OFFCURVE",
"827 131 CURVE SMOOTH",
"742 131 OFFCURVE",
"698 190 OFFCURVE",
"678 303 CURVE SMOOTH",
"667 360 OFFCURVE",
"662 466 OFFCURVE",
"662 621 CURVE",
"504 621 LINE",
"504 460 OFFCURVE",
"515 335 OFFCURVE",
"538 246 CURVE SMOOTH",
"583 69 OFFCURVE",
"678 -12 OFFCURVE",
"821 -12 CURVE SMOOTH"
);
}
);
width = 1688;
}
);
note = g20;
},
{
glyphname = g21;
lastChange = "2016-11-10 14:03:24 +0000";
layers = (
{
layerId = "67EF7336-7CB8-4251-9ECE-B9471ABF4073";
paths = (
{
closed = 1;
nodes = (
"1589 88 LINE",
"1128 741 LINE",
"1462 1251 LINE",
"1333 1343 LINE",
"969 793 LINE",
"969 690 LINE",
"1468 -10 LINE"
);
},
{
closed = 1;
nodes = (
"735 690 LINE",
"735 793 LINE",
"365 1343 LINE",
"233 1253 LINE",
"578 741 LINE",
"115 88 LINE",
"236 -10 LINE"
);
},
{
closed = 1;
nodes = (
"909 942 LINE",
"1212 1395 LINE",
"1079 1483 LINE",
"858 1141 LINE",
"631 1481 LINE",
"508 1397 LINE",
"811 942 LINE"
);
}
);
width = 1704;
}
);
note = g21;
},
{
glyphname = g22;
lastChange = "2016-11-10 14:03:24 +0000";
layers = (
{
layerId = "67EF7336-7CB8-4251-9ECE-B9471ABF4073";
paths = (
{
closed = 1;
nodes = (
"862 678 LINE",
"1481 -20 LINE",
"1610 74 LINE",
"973 799 LINE",
"1491 1393 LINE",
"1362 1487 LINE",
"862 918 LINE",
"362 1487 LINE",
"233 1393 LINE",
"752 799 LINE",
"115 74 LINE",
"244 -20 LINE"
);
},
{
closed = 1;
nodes = (
"1161 0 LINE",
"1161 145 LINE",
"1124 145 LINE SMOOTH",
"1013 145 OFFCURVE",
"972 172 OFFCURVE",
"952 240 CURVE SMOOTH",
"941 274 OFFCURVE",
"936 331 OFFCURVE",
"936 412 CURVE SMOOTH",
"936 465 LINE",
"776 465 LINE",
"776 406 LINE SMOOTH",
"776 291 OFFCURVE",
"786 206 OFFCURVE",
"806 151 CURVE SMOOTH",
"846 42 OFFCURVE",
"932 0 OFFCURVE",
"1124 0 CURVE SMOOTH"
);
}
);
width = 1726;
}
);
note = g22;
},
{
glyphname = g23;
lastChange = "2016-11-10 14:03:24 +0000";
layers = (
{
layerId = "67EF7336-7CB8-4251-9ECE-B9471ABF4073";
paths = (
{
closed = 1;
nodes = (
"1335 344 LINE",
"1335 487 LINE",
"1229 487 LINE SMOOTH",
"1140 487 OFFCURVE",
"1069 484 OFFCURVE",
"1016 477 CURVE",
"1010 487 LINE",
"1055 520 OFFCURVE",
"1071 535 OFFCURVE",
"1135 596 CURVE SMOOTH",
"1464 918 LINE",
"1726 664 LINE",
"1837 770 LINE",
"1481 1112 LINE",
"1432 1112 LINE",
"954 635 LINE",
"479 1112 LINE",
"428 1112 LINE",
"70 770 LINE",
"176 666 LINE",
"444 918 LINE",
"750 612 LINE SMOOTH",
"802 557 OFFCURVE",
"850 516 OFFCURVE",
"895 487 CURVE",
"891 477 LINE",
"827 484 OFFCURVE",
"759 487 OFFCURVE",
"688 487 CURVE SMOOTH",
"555 487 LINE",
"555 344 LINE"
);
}
);
width = 1905;
}
);
note = g23;
},
{
glyphname = g24;
lastChange = "2016-11-10 14:03:24 +0000";
layers = (
{
layerId = "67EF7336-7CB8-4251-9ECE-B9471ABF4073";
paths = (
{
closed = 1;
nodes = (
"1325 295 OFFCURVE",
"1610 469 OFFCURVE",
"1610 772 CURVE SMOOTH",
"1610 868 OFFCURVE",
"1581 952 OFFCURVE",
"1524 1023 CURVE SMOOTH",
"1409 1165 OFFCURVE",
"1167 1247 OFFCURVE",
"862 1247 CURVE SMOOTH",
"709 1247 OFFCURVE",
"575 1227 OFFCURVE",
"460 1188 CURVE SMOOTH",
"229 1108 OFFCURVE",
"115 964 OFFCURVE",
"115 772 CURVE SMOOTH",
"115 469 OFFCURVE",
"399 295 OFFCURVE",
"862 295 CURVE SMOOTH"
);
},
{
closed = 1;
nodes = (
"475 453 OFFCURVE",
"274 583 OFFCURVE",
"274 772 CURVE SMOOTH",
"274 964 OFFCURVE",
"473 1091 OFFCURVE",
"780 1106 CURVE",
"780 434 LINE"
);
},
{
closed = 1;
nodes = (
"940 1106 LINE",
"1244 1091 OFFCURVE",
"1452 964 OFFCURVE",
"1452 772 CURVE SMOOTH",
"1452 584 OFFCURVE",
"1264 459 OFFCURVE",
"940 434 CURVE"
);
}
);
width = 1726;
}
);
note = g24;
},
{
glyphname = g25;
lastChange = "2016-11-10 14:03:24 +0000";
layers = (
{
layerId = "67EF7336-7CB8-4251-9ECE-B9471ABF4073";
paths = (
{
closed = 1;
nodes = (
"834 645 LINE",
"1370 127 LINE",
"1485 236 LINE",
"1145 569 LINE SMOOTH",
"1056 657 OFFCURVE",
"986 715 OFFCURVE",
"936 743 CURVE",
"936 752 LINE",
"972 770 OFFCURVE",
"1012 800 OFFCURVE",
"1057 842 CURVE SMOOTH",
"1101 883 OFFCURVE",
"1242 1021 OFFCURVE",
"1481 1255 CURVE",
"1370 1368 LINE",
"834 850 LINE",
"297 1368 LINE",
"186 1255 LINE",
"528 920 LINE SMOOTH",
"614 834 OFFCURVE",
"682 778 OFFCURVE",
"731 752 CURVE",
"731 743 LINE",
"672 704 OFFCURVE",
"601 644 OFFCURVE",
"518 563 CURVE SMOOTH",
"184 236 LINE",
"297 127 LINE"
);
},
{
closed = 1;
nodes = (
"344 537 LINE",
"344 954 LINE",
"186 954 LINE",
"186 537 LINE"
);
},
{
closed = 1;
nodes = (
"1481 537 LINE",
"1481 954 LINE",
"1323 954 LINE",
"1323 537 LINE"
);
}
);
width = 1669;
}
);
note = g25;
},
{
glyphname = g26;
lastChange = "2016-11-10 14:03:24 +0000";
layers = (
{
layerId = "67EF7336-7CB8-4251-9ECE-B9471ABF4073";
paths = (
{
closed = 1;
nodes = (
"707 0 LINE",
"707 920 LINE",
"1126 920 LINE",
"1126 1061 LINE",
"137 1061 LINE",
"137 920 LINE",
"547 920 LINE",
"547 0 LINE"
);
},
{
closed = 1;
nodes = (
"1126 1321 LINE",
"1126 1462 LINE",
"137 1462 LINE",
"137 1321 LINE"
);
}
);
width = 1264;
}
);
note = g26;
},
{
glyphname = g27;
lastChange = "2016-11-10 14:03:24 +0000";
layers = (
{
layerId = "67EF7336-7CB8-4251-9ECE-B9471ABF4073";
paths = (
{
closed = 1;
nodes = (
"848 475 LINE SMOOTH",
"869 524 OFFCURVE",
"879 568 OFFCURVE",
"879 608 CURVE SMOOTH",
"879 710 OFFCURVE",
"820 787 OFFCURVE",
"702 838 CURVE SMOOTH",
"653 858 LINE SMOOTH",
"581 887 OFFCURVE",
"559 922 OFFCURVE",
"559 971 CURVE SMOOTH",
"559 1000 OFFCURVE",
"565 1026 OFFCURVE",
"578 1047 CURVE",
"752 1450 LINE",
"604 1503 LINE",
"424 1085 LINE SMOOTH",
"403 1040 OFFCURVE",
"393 995 OFFCURVE",
"393 952 CURVE SMOOTH",
"393 850 OFFCURVE",
"452 774 OFFCURVE",
"569 723 CURVE SMOOTH",
"618 702 LINE SMOOTH",
"690 670 OFFCURVE",
"715 639 OFFCURVE",
"715 590 CURVE SMOOTH",
"715 566 OFFCURVE",
"709 541 OFFCURVE",
"696 514 CURVE SMOOTH",
"481 33 LINE",
"629 -20 LINE"
);
},
{
closed = 1;
nodes = (
"293 334 LINE",
"293 1141 LINE",
"137 1141 LINE",
"137 334 LINE"
);
},
{
closed = 1;
nodes = (
"1120 334 LINE",
"1120 1141 LINE",
"965 1141 LINE",
"965 334 LINE"
);
}
);
width = 1257;
}
);
note = g27;
},
{
glyphname = g28;
lastChange = "2016-11-10 14:03:24 +0000";
layers = (
{
layerId = "67EF7336-7CB8-4251-9ECE-B9471ABF4073";
paths = (
{
closed = 1;
nodes = (
"1266 0 LINE",
"1266 141 LINE",
"473 141 LINE",
"1073 928 LINE SMOOTH",
"1122 995 OFFCURVE",
"1147 1054 OFFCURVE",
"1147 1106 CURVE SMOOTH",
"1147 1180 OFFCURVE",
"1104 1251 OFFCURVE",
"1018 1319 CURVE SMOOTH",
"795 1491 LINE",
"696 1364 LINE",
"915 1198 LINE SMOOTH",
"959 1165 OFFCURVE",
"981 1131 OFFCURVE",
"981 1094 CURVE SMOOTH",
"981 1067 OFFCURVE",
"969 1039 OFFCURVE",
"946 1010 CURVE SMOOTH",
"829 862 LINE",
"502 1116 LINE",
"403 991 LINE",
"731 735 LINE",
"524 465 LINE",
"188 721 LINE",
"92 596 LINE",
"428 342 LINE",
"272 141 LINE",
"94 141 LINE",
"94 0 LINE"
);
}
);
width = 1335;
}
);
note = g28;
},
{
glyphname = g29;
lastChange = "2016-11-10 14:03:24 +0000";
layers = (
{
layerId = "67EF7336-7CB8-4251-9ECE-B9471ABF4073";
paths = (
{
closed = 1;
nodes = (
"969 879 LINE SMOOTH",
"992 934 OFFCURVE",
"1028 961 OFFCURVE",
"1079 961 CURVE SMOOTH",
"1102 961 OFFCURVE",
"1126 955 OFFCURVE",
"1153 944 CURVE SMOOTH",
"1399 842 LINE",
"1466 985 LINE",
"1210 1100 LINE SMOOTH",
"1161 1120 OFFCURVE",
"1115 1130 OFFCURVE",
"1073 1130 CURVE SMOOTH",
"970 1130 OFFCURVE",
"879 1061 OFFCURVE",
"831 952 CURVE SMOOTH",
"440 55 LINE",
"586 -8 LINE"
);
},
{
closed = 1;
nodes = (
"676 1020 LINE",
"698 1065 OFFCURVE",
"709 1111 OFFCURVE",
"709 1157 CURVE SMOOTH",
"709 1258 OFFCURVE",
"648 1334 OFFCURVE",
"526 1386 CURVE SMOOTH",
"270 1497 LINE",
"205 1354 LINE",
"451 1247 LINE SMOOTH",
"512 1221 OFFCURVE",
"543 1183 OFFCURVE",
"543 1133 CURVE SMOOTH",
"543 1112 OFFCURVE",
"538 1090 OFFCURVE",
"528 1069 CURVE SMOOTH",
"137 172 LINE",
"283 109 LINE"
);
}
);
width = 1559;
}
);
note = g29;
},
{
glyphname = g30;
lastChange = "2016-11-10 14:03:24 +0000";
layers = (
{
layerId = "67EF7336-7CB8-4251-9ECE-B9471ABF4073";
paths = (
{
closed = 1;
nodes = (
"842 655 LINE",
"842 815 LINE",
"258 1487 LINE",
"137 1382 LINE",
"696 735 LINE",
"147 98 LINE",
"268 -6 LINE"
);
},
{
closed = 1;
nodes = (
"1102 0 LINE",
"1102 651 LINE",
"942 651 LINE",
"942 0 LINE"
);
},
{
closed = 1;
nodes = (
"1102 811 LINE",
"1102 1462 LINE",
"942 1462 LINE",
"942 811 LINE"
);
}
);
width = 1333;
}
);
note = g30;
},
{
glyphname = g31;
lastChange = "2016-11-10 14:03:24 +0000";
layers = (
{
layerId = "67EF7336-7CB8-4251-9ECE-B9471ABF4073";
paths = (
{
closed = 1;
nodes = (
"758 0 LINE",
"758 526 LINE",
"1176 526 LINE",
"1176 668 LINE",
"758 668 LINE",
"758 944 LINE",
"1176 944 LINE",
"1176 1085 LINE",
"758 1085 LINE",
"758 1462 LINE",
"600 1462 LINE",
"600 1085 LINE",
"184 1085 LINE",
"184 944 LINE",
"600 944 LINE",
"600 668 LINE",
"184 668 LINE",
"184 526 LINE",
"600 526 LINE",
"600 0 LINE"
);
}
);
width = 1360;
}
);
note = g31;
},
{
glyphname = g32;
lastChange = "2016-11-10 14:03:24 +0000";
layers = (
{
layerId = "67EF7336-7CB8-4251-9ECE-B9471ABF4073";
paths = (
{
closed = 1;
nodes = (
"606 475 LINE SMOOTH",
"627 521 OFFCURVE",
"637 565 OFFCURVE",
"637 608 CURVE SMOOTH",
"637 709 OFFCURVE",
"578 785 OFFCURVE",
"459 838 CURVE SMOOTH",
"412 858 LINE SMOOTH",
"340 891 OFFCURVE",
"317 922 OFFCURVE",
"317 971 CURVE SMOOTH",
"317 998 OFFCURVE",
"323 1023 OFFCURVE",
"334 1047 CURVE SMOOTH",
"510 1450 LINE",
"360 1503 LINE",
"182 1085 LINE SMOOTH",
"161 1035 OFFCURVE",
"150 991 OFFCURVE",
"150 952 CURVE SMOOTH",
"150 850 OFFCURVE",
"209 774 OFFCURVE",
"328 723 CURVE SMOOTH",
"377 702 LINE SMOOTH",
"446 670 OFFCURVE",
"473 639 OFFCURVE",
"473 590 CURVE SMOOTH",
"473 568 OFFCURVE",
"466 543 OFFCURVE",
"453 514 CURVE SMOOTH",
"238 33 LINE",
"387 -20 LINE"
);
}
);
width = 788;
}
);
note = g32;
},
{
glyphname = g33;
lastChange = "2016-11-10 14:03:24 +0000";
layers = (
{
layerId = "67EF7336-7CB8-4251-9ECE-B9471ABF4073";
paths = (
{
closed = 1;
nodes = (
"803 0 LINE",
"1380 662 LINE",
"1257 770 LINE",
"766 207 LINE",
"287 772 LINE",
"162 664 LINE",
"743 0 LINE"
);
},
{
closed = 1;
nodes = (
"838 756 LINE",
"1380 1376 LINE",
"1257 1485 LINE",
"766 922 LINE",
"287 1487 LINE",
"162 1378 LINE",
"707 756 LINE"
);
}
);
width = 1542;
}
);
note = g33;
},
{
glyphname = g34;
lastChange = "2016-11-10 14:03:24 +0000";
layers = (
{
layerId = "67EF7336-7CB8-4251-9ECE-B9471ABF4073";
paths = (
{
closed = 1;
nodes = (
"737 715 LINE",
"606 778 OFFCURVE",
"515 827 OFFCURVE",
"466 862 CURVE SMOOTH",
"366 930 OFFCURVE",
"330 987 OFFCURVE",
"330 1094 CURVE SMOOTH",
"330 1136 OFFCURVE",
"341 1176 OFFCURVE",
"363 1215 CURVE SMOOTH",
"407 1291 OFFCURVE",
"483 1337 OFFCURVE",
"559 1337 CURVE SMOOTH",
"664 1337 OFFCURVE",
"787 1281 OFFCURVE",
"911 1169 CURVE",
"1001 1296 LINE",
"849 1433 OFFCURVE",
"732 1483 OFFCURVE",
"561 1483 CURVE SMOOTH",
"490 1483 OFFCURVE",
"423 1465 OFFCURVE",
"362 1429 CURVE SMOOTH",
"239 1357 OFFCURVE",
"162 1225 OFFCURVE",
"162 1090 CURVE SMOOTH",
"162 894 OFFCURVE",
"252 776 OFFCURVE",
"524 641 CURVE",
"254 43 LINE",
"403 -20 LINE"
);
}
);
width = 1069;
}
);
note = g34;
},
{
glyphname = g35;
lastChange = "2016-11-10 14:03:24 +0000";
layers = (
{
layerId = "67EF7336-7CB8-4251-9ECE-B9471ABF4073";
paths = (
{
closed = 1;
nodes = (
"1358 266 LINE",
"1358 414 LINE",
"1223 414 LINE SMOOTH",
"1061 414 OFFCURVE",
"965 410 OFFCURVE",
"936 403 CURVE",
"930 414 LINE",
"995 441 OFFCURVE",
"1061 477 OFFCURVE",
"1128 522 CURVE SMOOTH",
"1626 870 LINE",
"1626 967 LINE",
"1317 1257 LINE",
"1208 1139 LINE",
"1440 924 LINE",
"1057 657 LINE SMOOTH",
"992 614 OFFCURVE",
"949 574 OFFCURVE",
"928 537 CURVE",
"920 541 LINE",
"931 648 OFFCURVE",
"936 758 OFFCURVE",
"936 872 CURVE SMOOTH",
"936 961 LINE",
"776 961 LINE",
"776 872 LINE SMOOTH",
"776 765 OFFCURVE",
"782 654 OFFCURVE",
"793 541 CURVE",
"782 537 LINE",
"764 572 OFFCURVE",
"723 612 OFFCURVE",
"659 657 CURVE SMOOTH",
"279 926 LINE",
"508 1139 LINE",
"401 1257 LINE",
"92 967 LINE",
"92 870 LINE",
"592 522 LINE SMOOTH",
"651 481 OFFCURVE",
"717 445 OFFCURVE",
"788 414 CURVE",
"782 403 LINE",
"750 410 OFFCURVE",
"679 414 OFFCURVE",
"569 414 CURVE SMOOTH",
"362 414 LINE",
"362 266 LINE"
);
}
);
width = 1716;
}
);
note = g35;
},
{
glyphname = g36;
lastChange = "2016-11-10 14:03:24 +0000";
layers = (
{
layerId = "67EF7336-7CB8-4251-9ECE-B9471ABF4073";
paths = (
{
closed = 1;
nodes = (
"1317 0 LINE",
"1317 141 LINE",
"874 141 LINE",
"1064 398 OFFCURVE",
"1159 659 OFFCURVE",
"1159 924 CURVE SMOOTH",
"1159 1280 OFFCURVE",
"992 1489 OFFCURVE",
"705 1489 CURVE SMOOTH",
"608 1489 OFFCURVE",
"526 1466 OFFCURVE",
"457 1421 CURVE SMOOTH",
"320 1329 OFFCURVE",
"248 1153 OFFCURVE",
"248 924 CURVE SMOOTH",
"248 663 OFFCURVE",
"343 393 OFFCURVE",
"530 141 CURVE",
"92 141 LINE",
"92 0 LINE"
);
},
{
closed = 1;
nodes = (
"509 372 OFFCURVE",
"406 653 OFFCURVE",
"406 924 CURVE SMOOTH",
"406 1195 OFFCURVE",
"510 1341 OFFCURVE",
"705 1341 CURVE SMOOTH",
"901 1341 OFFCURVE",
"1004 1193 OFFCURVE",
"1004 924 CURVE SMOOTH",
"1004 651 OFFCURVE",
"897 370 OFFCURVE",
"705 145 CURVE"
);
}
);
width = 1407;
}
);
note = g36;
},
{
glyphname = g37;
lastChange = "2016-11-10 14:03:24 +0000";
layers = (
{
layerId = "67EF7336-7CB8-4251-9ECE-B9471ABF4073";
paths = (
{
closed = 1;
nodes = (
"805 1276 LINE",
"1382 614 LINE",
"1505 723 LINE",
"840 1483 LINE",
"780 1483 LINE",
"115 723 LINE",
"240 614 LINE"
);
},
{
closed = 1;
nodes = (
"674 0 LINE",
"674 762 LINE",
"516 762 LINE",
"516 0 LINE"
);
},
{
closed = 1;
nodes = (
"1106 0 LINE",
"1106 762 LINE",
"946 762 LINE",
"946 0 LINE"
);
}
);
width = 1622;
}
);
note = g37;
},
{
glyphname = g38;
lastChange = "2016-11-10 14:03:24 +0000";
layers = (
{
layerId = "67EF7336-7CB8-4251-9ECE-B9471ABF4073";
paths = (
{
closed = 1;
nodes = (
"1286 928 LINE SMOOTH",
"1335 990 OFFCURVE",
"1360 1049 OFFCURVE",
"1360 1106 CURVE SMOOTH",
"1360 1180 OFFCURVE",
"1317 1251 OFFCURVE",
"1231 1319 CURVE SMOOTH",
"1008 1491 LINE",
"907 1368 LINE",
"1126 1204 LINE SMOOTH",
"1170 1172 OFFCURVE",
"1192 1136 OFFCURVE",
"1192 1096 CURVE SMOOTH",
"1192 1069 OFFCURVE",
"1180 1041 OFFCURVE",
"1157 1012 CURVE SMOOTH",
"936 727 LINE",
"600 989 LINE",
"506 864 LINE",
"844 602 LINE",
"530 201 LINE",
"188 461 LINE",
"92 334 LINE",
"561 -12 LINE"
);
}
);
width = 1430;
}
);
note = g38;
},
{
glyphname = g39;
lastChange = "2016-11-10 14:03:24 +0000";
layers = (
{
layerId = "67EF7336-7CB8-4251-9ECE-B9471ABF4073";
paths = (
{
closed = 1;
nodes = (
"340 65 OFFCURVE",
"473 181 OFFCURVE",
"608 326 CURVE",
"745 187 OFFCURVE",
"886 70 OFFCURVE",
"1032 -23 CURVE",
"1120 106 LINE",
"982 194 OFFCURVE",
"846 305 OFFCURVE",
"711 440 CURVE",
"912 685 OFFCURVE",
"1012 898 OFFCURVE",
"1012 1079 CURVE SMOOTH",
"1012 1164 OFFCURVE",
"995 1239 OFFCURVE",
"960 1304 CURVE SMOOTH",
"890 1432 OFFCURVE",
"758 1503 OFFCURVE",
"598 1503 CURVE SMOOTH",
"517 1503 OFFCURVE",
"446 1486 OFFCURVE",
"383 1452 CURVE SMOOTH",
"258 1384 OFFCURVE",
"184 1250 OFFCURVE",
"184 1079 CURVE SMOOTH",
"184 898 OFFCURVE",
"299 669 OFFCURVE",
"510 430 CURVE",
"395 315 OFFCURVE",
"264 207 OFFCURVE",
"115 106 CURVE",
"207 -23 LINE"
);
},
{
closed = 1;
nodes = (
"430 752 OFFCURVE",
"338 930 OFFCURVE",
"338 1079 CURVE SMOOTH",
"338 1251 OFFCURVE",
"435 1348 OFFCURVE",
"598 1348 CURVE SMOOTH",
"759 1348 OFFCURVE",
"856 1250 OFFCURVE",
"856 1079 CURVE SMOOTH",
"856 911 OFFCURVE",
"775 732 OFFCURVE",
"614 543 CURVE"
);
}
);
width = 1235;
}
);
note = g39;
},
{
glyphname = g40;
lastChange = "2016-11-10 14:03:24 +0000";
layers = (
{
layerId = "67EF7336-7CB8-4251-9ECE-B9471ABF4073";
paths = (
{
closed = 1;
nodes = (
"1532 119 LINE",
"1301 207 OFFCURVE",
"1159 443 OFFCURVE",
"1159 739 CURVE SMOOTH",
"1159 1035 OFFCURVE",
"1301 1271 OFFCURVE",
"1532 1360 CURVE",
"1466 1485 LINE",
"1375 1452 OFFCURVE",
"1294 1400 OFFCURVE",
"1223 1327 CURVE SMOOTH",
"1080 1181 OFFCURVE",
"997 968 OFFCURVE",
"997 739 CURVE SMOOTH",
"997 624 OFFCURVE",
"1017 515 OFFCURVE",
"1058 413 CURVE SMOOTH",
"1138 209 OFFCURVE",
"1286 58 OFFCURVE",
"1466 -6 CURVE"
);
},
{
closed = 1;
nodes = (
"1223 -76 LINE",
"872 449 LINE",
"739 358 LINE",
"1085 -162 LINE"
);
},
{
closed = 1;
nodes = (
"294 27 OFFCURVE",
"375 80 OFFCURVE",
"446 152 CURVE SMOOTH",
"588 296 OFFCURVE",
"672 510 OFFCURVE",
"672 739 CURVE SMOOTH",
"672 854 OFFCURVE",
"652 963 OFFCURVE",
"612 1066 CURVE SMOOTH",
"532 1270 OFFCURVE",
"383 1420 OFFCURVE",
"203 1485 CURVE",
"137 1360 LINE",
"368 1271 OFFCURVE",
"510 1036 OFFCURVE",
"510 739 CURVE SMOOTH",
"510 444 OFFCURVE",
"368 208 OFFCURVE",
"137 119 CURVE",
"203 -6 LINE"
);
}
);
width = 1669;
}
);
note = g40;
},
{
glyphname = g41;
lastChange = "2016-11-10 14:03:24 +0000";
layers = (
{
layerId = "67EF7336-7CB8-4251-9ECE-B9471ABF4073";
paths = (
{
closed = 1;
nodes = (
"791 0 LINE",
"1235 1409 LINE",
"1079 1464 LINE",
"803 584 LINE SMOOTH",
"754 433 OFFCURVE",
"704 242 OFFCURVE",
"688 127 CURVE",
"678 127 LINE",
"667 231 OFFCURVE",
"618 427 OFFCURVE",
"563 590 CURVE SMOOTH",
"279 1464 LINE",
"115 1415 LINE",
"563 0 LINE"
);
}
);
width = 1350;
}
);
note = g41;
},
{
glyphname = g42;
lastChange = "2016-11-10 14:03:24 +0000";
layers = (
{
layerId = "67EF7336-7CB8-4251-9ECE-B9471ABF4073";
paths = (
{
closed = 1;
nodes = (
"391 0 LINE",
"391 920 LINE",
"1217 920 LINE",
"1217 1462 LINE",
"1057 1462 LINE",
"1057 1061 LINE",
"809 1061 LINE",
"809 1462 LINE",
"649 1462 LINE",
"649 1061 LINE",
"391 1061 LINE",
"391 1462 LINE",
"231 1462 LINE",
"231 0 LINE"
);
}
);
width = 1354;
}
);
note = g42;
},
{
glyphname = g43;
lastChange = "2016-11-10 14:03:24 +0000";
layers = (
{
layerId = "67EF7336-7CB8-4251-9ECE-B9471ABF4073";
paths = (
{
closed = 1;
nodes = (
"805 1276 LINE",
"1382 614 LINE",
"1505 723 LINE",
"840 1483 LINE",
"780 1483 LINE",
"115 723 LINE",
"240 614 LINE"
);
},
{
closed = 1;
nodes = (
"1278 0 LINE",
"1278 141 LINE",
"315 141 LINE",
"315 0 LINE"
);
},
{
closed = 1;
nodes = (
"1278 344 LINE",
"1278 494 LINE",
"1112 494 LINE SMOOTH",
"940 494 OFFCURVE",
"885 578 OFFCURVE",
"885 813 CURVE SMOOTH",
"885 950 LINE",
"727 950 LINE",
"727 809 LINE SMOOTH",
"727 694 OFFCURVE",
"739 603 OFFCURVE",
"763 535 CURVE SMOOTH",
"810 399 OFFCURVE",
"893 344 OFFCURVE",
"1112 344 CURVE SMOOTH"
);
}
);
width = 1645;
}
);
note = g43;
},
{
glyphname = g44;
lastChange = "2016-11-10 14:03:24 +0000";
layers = (
{
layerId = "67EF7336-7CB8-4251-9ECE-B9471ABF4073";
paths = (
{
closed = 1;
nodes = (
"1255 215 LINE",
"1255 350 LINE",
"1026 350 LINE SMOOTH",
"936 350 OFFCURVE",
"865 346 OFFCURVE",
"813 338 CURVE",
"811 344 LINE",
"862 374 OFFCURVE",
"918 424 OFFCURVE",
"979 494 CURVE SMOOTH",
"1380 950 LINE",
"1268 1061 LINE",
"766 485 LINE",
"279 1055 LINE",
"162 952 LINE",
"561 494 LINE SMOOTH",
"634 411 OFFCURVE",
"689 361 OFFCURVE",
"725 344 CURVE",
"723 338 LINE",
"683 346 OFFCURVE",
"613 350 OFFCURVE",
"514 350 CURVE SMOOTH",
"287 350 LINE",
"287 215 LINE"
);
},
{
closed = 1;
nodes = (
"1255 0 LINE",
"1255 135 LINE",
"287 135 LINE",
"287 0 LINE"
);
},
{
closed = 1;
nodes = (
"838 766 LINE",
"1372 1382 LINE",
"1257 1485 LINE",
"766 922 LINE",
"287 1487 LINE",
"166 1382 LINE",
"707 766 LINE"
);
}
);
width = 1542;
}
);
note = g44;
},
{
glyphname = g45;
lastChange = "2016-11-10 14:03:24 +0000";
layers = (
{
layerId = "67EF7336-7CB8-4251-9ECE-B9471ABF4073";
paths = (
{
closed = 1;
nodes = (
"1200 422 LINE SMOOTH",
"1233 518 OFFCURVE",
"1262 633 OFFCURVE",
"1266 674 CURVE",
"1274 674 LINE",
"1278 635 OFFCURVE",
"1316 487 OFFCURVE",
"1337 424 CURVE SMOOTH",
"1491 -8 LINE",
"1659 12 LINE",
"1362 823 LINE",
"1368 834 LINE",
"1397 827 OFFCURVE",
"1478 823 OFFCURVE",
"1610 823 CURVE SMOOTH",
"1747 823 LINE",
"1747 965 LINE",
"1352 965 LINE",
"1352 1462 LINE",
"1192 1462 LINE",
"1192 965 LINE",
"801 965 LINE",
"801 823 LINE",
"965 823 LINE SMOOTH",
"1075 823 OFFCURVE",
"1146 827 OFFCURVE",
"1178 834 CURVE",
"1182 823 LINE",
"885 12 LINE",
"1049 -8 LINE"
);
},
{
closed = 1;
nodes = (
"338 26 OFFCURVE",
"419 79 OFFCURVE",
"491 152 CURVE SMOOTH",
"635 298 OFFCURVE",
"719 510 OFFCURVE",
"719 739 CURVE SMOOTH",
"719 854 OFFCURVE",
"699 962 OFFCURVE",
"659 1065 CURVE SMOOTH",
"579 1269 OFFCURVE",
"429 1420 OFFCURVE",
"248 1485 CURVE",
"184 1360 LINE",
"411 1272 OFFCURVE",
"555 1040 OFFCURVE",
"555 739 CURVE SMOOTH",
"555 440 OFFCURVE",
"412 207 OFFCURVE",
"184 119 CURVE",
"248 -6 LINE"
);
}
);
width = 1862;
}
);
note = g45;
},
{
glyphname = g46;
lastChange = "2016-11-10 14:03:24 +0000";
layers = (
{
layerId = "67EF7336-7CB8-4251-9ECE-B9471ABF4073";
paths = (
{
closed = 1;
nodes = (
"391 0 LINE",
"391 735 LINE",
"1012 735 LINE",
"1012 877 LINE",
"391 877 LINE",
"391 1462 LINE",
"231 1462 LINE",
"231 0 LINE"
);
}
);
width = 1104;
}
);
note = g46;
},
{
glyphname = g47;
lastChange = "2016-11-10 14:03:24 +0000";
layers = (
{
layerId = "67EF7336-7CB8-4251-9ECE-B9471ABF4073";
paths = (
{
closed = 1;
nodes = (
"1180 0 LINE",
"1180 141 LINE",
"737 141 LINE",
"1288 694 LINE",
"1180 801 LINE",
"911 537 LINE SMOOTH",
"868 494 OFFCURVE",
"825 435 OFFCURVE",
"782 362 CURVE",
"774 362 LINE",
"787 490 OFFCURVE",
"793 619 OFFCURVE",
"793 748 CURVE SMOOTH",
"793 1462 LINE",
"633 1462 LINE",
"633 748 LINE SMOOTH",
"633 617 OFFCURVE",
"638 488 OFFCURVE",
"647 362 CURVE",
"639 362 LINE",
"600 437 OFFCURVE",
"559 495 OFFCURVE",
"516 537 CURVE SMOOTH",
"244 801 LINE",
"137 692 LINE",
"690 141 LINE",
"244 141 LINE",
"244 0 LINE"
);
}
);
width = 1427;
}
);
note = g47;
},
{
glyphname = g48;
lastChange = "2016-11-10 14:03:24 +0000";
layers = (
{
layerId = "67EF7336-7CB8-4251-9ECE-B9471ABF4073";
paths = (
{
closed = 1;
nodes = (
"793 0 LINE",
"793 901 LINE SMOOTH",
"793 993 OFFCURVE",
"789 1087 OFFCURVE",
"781 1184 CURVE SMOOTH",
"774 1264 LINE",
"782 1264 LINE",
"806 1225 OFFCURVE",
"849 1174 OFFCURVE",
"911 1112 CURVE SMOOTH",
"1180 848 LINE",
"1288 954 LINE",
"758 1483 LINE",
"666 1483 LINE",
"137 956 LINE",
"244 848 LINE",
"516 1112 LINE SMOOTH",
"571 1165 OFFCURVE",
"612 1215 OFFCURVE",
"639 1264 CURVE",
"647 1264 LINE",
"638 1139 OFFCURVE",
"633 1018 OFFCURVE",
"633 901 CURVE SMOOTH",
"633 0 LINE"
);
}
);
width = 1427;
}
);
note = g48;
},
{
glyphname = g49;
lastChange = "2016-11-10 14:03:24 +0000";
layers = (
{
layerId = "67EF7336-7CB8-4251-9ECE-B9471ABF4073";
paths = (
{
closed = 1;
nodes = (
"602 0 LINE",
"602 836 LINE",
"1026 836 LINE",
"1026 977 LINE",
"602 977 LINE",
"602 1321 LINE",
"1130 1321 LINE",
"1130 1462 LINE",
"137 1462 LINE",
"137 1321 LINE",
"442 1321 LINE",
"442 0 LINE"
);
}
);
width = 1268;
}
);
note = g49;
},
{
glyphname = g50;
lastChange = "2016-11-10 14:03:24 +0000";
layers = (
{
layerId = "67EF7336-7CB8-4251-9ECE-B9471ABF4073";
paths = (
{
closed = 1;
nodes = (
"553 836 LINE",
"1217 836 LINE",
"1217 977 LINE",
"573 977 LINE",
"625 1321 LINE",
"1217 1321 LINE",
"1217 1462 LINE",
"162 1462 LINE",
"162 1321 LINE",
"463 1321 LINE",
"272 6 LINE",
"432 -6 LINE"
);
},
{
closed = 1;
nodes = (
"924 145 LINE",
"924 651 LINE",
"764 651 LINE",
"764 145 LINE"
);
},
{
closed = 1;
nodes = (
"1217 0 LINE",
"1217 651 LINE",
"1057 651 LINE",
"1057 0 LINE"
);
}
);
width = 1423;
}
);
note = g50;
},
{
glyphname = g51;
lastChange = "2016-11-10 14:03:24 +0000";
layers = (
{
layerId = "67EF7336-7CB8-4251-9ECE-B9471ABF4073";
paths = (
{
closed = 1;
nodes = (
"1589 88 LINE",
"1128 741 LINE",
"1579 1407 LINE",
"1450 1507 LINE",
"969 793 LINE",
"969 690 LINE",
"1468 -10 LINE"
);
},
{
closed = 1;
nodes = (
"860 338 LINE",
"1087 -2 LINE",
"1212 82 LINE",
"909 537 LINE",
"811 537 LINE",
"508 84 LINE",
"639 -4 LINE"
);
},
{
closed = 1;
nodes = (
"735 690 LINE",
"735 793 LINE",
"256 1497 LINE",
"125 1407 LINE",
"578 741 LINE",
"115 88 LINE",
"236 -10 LINE"
);
}
);
width = 1704;
}
);
note = g51;
},
{
glyphname = g52;
lastChange = "2016-11-10 14:03:24 +0000";
layers = (
{
layerId = "67EF7336-7CB8-4251-9ECE-B9471ABF4073";
paths = (
{
closed = 1;
nodes = (
"1149 0 LINE",
"1149 141 LINE",
"729 141 LINE",
"729 1321 LINE",
"1149 1321 LINE",
"1149 1462 LINE",
"162 1462 LINE",
"162 1321 LINE",
"569 1321 LINE",
"569 141 LINE",
"162 141 LINE",
"162 0 LINE"
);
}
);
width = 1311;
}
);
note = g52;
},
{
glyphname = g53;
lastChange = "2016-11-10 14:03:24 +0000";
layers = (
{
layerId = "67EF7336-7CB8-4251-9ECE-B9471ABF4073";
paths = (
{
closed = 1;
nodes = (
"1589 88 LINE",
"1128 741 LINE",
"1462 1243 LINE",
"1333 1343 LINE",
"969 793 LINE",
"969 690 LINE",
"1468 -10 LINE"
);
},
{
closed = 1;
nodes = (
"735 690 LINE",
"735 793 LINE",
"365 1343 LINE",
"233 1253 LINE",
"578 741 LINE",
"115 88 LINE",
"236 -10 LINE"
);
},
{
closed = 1;
nodes = (
"938 1020 LINE",
"938 1462 LINE",
"778 1462 LINE",
"778 1020 LINE"
);
}
);
width = 1704;
}
);
note = g53;
},
{
glyphname = g54;
lastChange = "2016-11-10 14:03:24 +0000";
layers = (
{
layerId = "67EF7336-7CB8-4251-9ECE-B9471ABF4073";
paths = (
{
closed = 1;
nodes = (
"827 1276 LINE",
"1405 614 LINE",
"1530 723 LINE",
"862 1483 LINE",
"805 1483 LINE",
"137 723 LINE",
"264 614 LINE"
);
},
{
closed = 1;
nodes = (
"307 0 LINE SMOOTH",
"467 0 OFFCURVE",
"591 26 OFFCURVE",
"679 79 CURVE SMOOTH",
"854 183 OFFCURVE",
"930 401 OFFCURVE",
"930 809 CURVE SMOOTH",
"930 950 LINE",
"772 950 LINE",
"772 813 LINE SMOOTH",
"772 618 OFFCURVE",
"759 477 OFFCURVE",
"732 390 CURVE SMOOTH",
"678 214 OFFCURVE",
"566 147 OFFCURVE",
"307 147 CURVE SMOOTH",
"244 147 LINE",
"244 0 LINE"
);
}
);
width = 1622;
}
);
note = g54;
},
{
glyphname = g55;
lastChange = "2016-11-10 14:03:24 +0000";
layers = (
{
layerId = "67EF7336-7CB8-4251-9ECE-B9471ABF4073";
paths = (
{
closed = 1;
nodes = (
"294 27 OFFCURVE",
"375 80 OFFCURVE",
"446 152 CURVE SMOOTH",
"588 296 OFFCURVE",
"672 510 OFFCURVE",
"672 739 CURVE SMOOTH",
"672 854 OFFCURVE",
"652 963 OFFCURVE",
"612 1066 CURVE SMOOTH",
"532 1270 OFFCURVE",
"383 1420 OFFCURVE",
"203 1485 CURVE",
"137 1360 LINE",
"368 1271 OFFCURVE",
"510 1036 OFFCURVE",
"510 739 CURVE SMOOTH",
"510 444 OFFCURVE",
"368 208 OFFCURVE",
"137 119 CURVE",
"203 -6 LINE"
);
},
{
closed = 1;
nodes = (
"1368 119 LINE",
"1140 208 OFFCURVE",
"997 440 OFFCURVE",
"997 739 CURVE SMOOTH",
"997 1039 OFFCURVE",
"1140 1272 OFFCURVE",
"1368 1360 CURVE",
"1303 1485 LINE",
"1212 1452 OFFCURVE",
"1131 1400 OFFCURVE",
"1060 1327 CURVE SMOOTH",
"917 1181 OFFCURVE",
"834 968 OFFCURVE",
"834 739 CURVE SMOOTH",
"834 624 OFFCURVE",
"854 515 OFFCURVE",
"895 413 CURVE SMOOTH",
"975 209 OFFCURVE",
"1123 58 OFFCURVE",
"1303 -6 CURVE"
);
}
);
width = 1505;
}
);
note = g55;
},
{
glyphname = g56;
lastChange = "2016-11-10 14:03:24 +0000";
layers = (
{
layerId = "67EF7336-7CB8-4251-9ECE-B9471ABF4073";
paths = (
{
closed = 1;
nodes = (
"1133 0 LINE",
"1133 1462 LINE",
"973 1462 LINE",
"973 877 LINE",
"561 877 LINE",
"561 735 LINE",
"973 735 LINE",
"973 0 LINE"
);
},
{
closed = 1;
nodes = (
"672 119 LINE",
"444 208 OFFCURVE",
"301 443 OFFCURVE",
"301 739 CURVE SMOOTH",
"301 1038 OFFCURVE",
"444 1271 OFFCURVE",
"672 1360 CURVE",
"608 1485 LINE",
"517 1452 OFFCURVE",
"436 1400 OFFCURVE",
"364 1327 CURVE SMOOTH",
"220 1181 OFFCURVE",
"137 968 OFFCURVE",
"137 739 CURVE SMOOTH",
"137 623 OFFCURVE",
"157 514 OFFCURVE",
"198 413 CURVE SMOOTH",
"278 209 OFFCURVE",
"428 58 OFFCURVE",
"608 -6 CURVE"
);
}
);
width = 1364;
}
);
note = g56;
},
{
glyphname = g57;
lastChange = "2016-11-10 14:03:24 +0000";
layers = (
{
layerId = "67EF7336-7CB8-4251-9ECE-B9471ABF4073";
paths = (
{
closed = 1;
nodes = (
"1589 88 LINE",
"1128 741 LINE",
"1462 1243 LINE",
"1333 1343 LINE",
"969 793 LINE",
"969 690 LINE",
"1468 -10 LINE"
);
},
{
closed = 1;
nodes = (
"735 690 LINE",
"735 793 LINE",
"365 1343 LINE",
"233 1253 LINE",
"578 741 LINE",
"115 88 LINE",
"236 -10 LINE"
);
},
{
closed = 1;
nodes = (
"1044 1102 LINE",
"844 1333 LINE",
"737 1239 LINE",
"936 1006 LINE"
);
},
{
closed = 1;
nodes = (
"1214 1253 LINE",
"1014 1485 LINE",
"907 1391 LINE",
"1108 1157 LINE"
);
}
);
width = 1704;
}
);
note = g57;
},
{
glyphname = g58;
lastChange = "2016-11-10 14:03:24 +0000";
layers = (
{
layerId = "67EF7336-7CB8-4251-9ECE-B9471ABF4073";
paths = (
{
closed = 1;
nodes = (
"594 475 LINE SMOOTH",
"615 524 OFFCURVE",
"625 568 OFFCURVE",
"625 608 CURVE SMOOTH",
"625 709 OFFCURVE",
"565 786 OFFCURVE",
"446 838 CURVE SMOOTH",
"399 858 LINE SMOOTH",
"328 891 OFFCURVE",
"305 922 OFFCURVE",
"305 971 CURVE SMOOTH",
"305 998 OFFCURVE",
"311 1023 OFFCURVE",
"322 1047 CURVE SMOOTH",
"498 1450 LINE",
"348 1503 LINE",
"170 1085 LINE SMOOTH",
"148 1034 OFFCURVE",
"137 989 OFFCURVE",
"137 952 CURVE SMOOTH",
"137 851 OFFCURVE",
"196 774 OFFCURVE",
"315 723 CURVE SMOOTH",
"362 702 LINE SMOOTH",
"434 670 OFFCURVE",
"459 639 OFFCURVE",
"459 590 CURVE SMOOTH",
"459 566 OFFCURVE",
"453 541 OFFCURVE",
"440 514 CURVE SMOOTH",
"225 33 LINE",
"375 -20 LINE"
);
},
{
closed = 1;
nodes = (
"1094 475 LINE SMOOTH",
"1115 525 OFFCURVE",
"1126 569 OFFCURVE",
"1126 608 CURVE SMOOTH",
"1126 709 OFFCURVE",
"1067 786 OFFCURVE",
"948 838 CURVE SMOOTH",
"901 858 LINE SMOOTH",
"829 891 OFFCURVE",
"807 922 OFFCURVE",
"807 971 CURVE SMOOTH",
"807 999 OFFCURVE",
"812 1024 OFFCURVE",
"823 1047 CURVE SMOOTH",
"999 1450 LINE",
"850 1503 LINE",
"670 1085 LINE SMOOTH",
"649 1040 OFFCURVE",
"639 995 OFFCURVE",
"639 952 CURVE SMOOTH",
"639 850 OFFCURVE",
"698 774 OFFCURVE",
"817 723 CURVE SMOOTH",
"864 702 LINE SMOOTH",
"936 670 OFFCURVE",
"961 639 OFFCURVE",
"961 590 CURVE SMOOTH",
"961 566 OFFCURVE",
"955 541 OFFCURVE",
"942 514 CURVE SMOOTH",
"727 33 LINE",
"874 -20 LINE"
);
}
